<svg xmlns="http://www.w3.org/2000/svg" viewBox="0 0 915 788" role="img" aria-label="URIEL Rune">
  <circle class="ur-ring-outer" cx="450.6" cy="400.2" r="335.3" fill="none" stroke="#FFD700" stroke-width="12" stroke-linecap="round"/>
  <circle class="ur-ring-inner" cx="450.6" cy="400.2" r="284.4" fill="none" stroke="#FFD700" stroke-width="12" stroke-linecap="round"/>
  <path fill="#FFD700" fill-rule="evenodd" d="M 433 157 L 325 328 L 380 636 L 385 632 L 520 424 L 515 620 L 512 625 L 500 627 L 499 641 L 543 643 L 547 638 L 546 627 L 536 626 L 533 622 L 540 357 L 390 587 L 343 334 L 438 186 L 513 263 L 514 286 L 524 303 L 544 311 L 559 308 L 573 296 L 577 285 L 576 267 L 568 255 L 550 246 L 527 250 L 454 174 Z M 543 256 L 549 256 L 550 257 L 552 257 L 553 258 L 554 258 L 555 259 L 556 259 L 557 260 L 558 260 L 563 265 L 563 266 L 565 268 L 565 269 L 566 270 L 566 272 L 567 273 L 567 284 L 566 285 L 566 286 L 565 287 L 565 288 L 564 289 L 564 290 L 557 297 L 556 297 L 555 298 L 554 298 L 553 299 L 551 299 L 550 300 L 540 300 L 539 299 L 538 299 L 537 298 L 536 298 L 535 297 L 534 297 L 527 290 L 527 289 L 526 288 L 526 287 L 525 286 L 525 285 L 524 284 L 524 282 L 523 281 L 523 277 L 524 276 L 524 273 L 525 272 L 525 271 L 526 270 L 526 269 L 528 267 L 528 266 L 535 259 L 536 259 L 537 258 L 538 258 L 539 257 L 542 257 Z"/>
</svg>
